<mxfile host="app.diagrams.net" modified="2021-03-16T07:20:21.912Z" agent="5.0 (Windows NT 10.0; Win64; x64) AppleWebKit/537.36 (KHTML, like Gecko) Chrome/89.0.4389.90 Safari/537.36 Edg/89.0.774.54" etag="TMXWScBDcTTzgzYcbTsG" version="14.4.8" type="github">
  <diagram id="a7Ne4S3aL2vVNyx3OiLb" name="第 1 页">
    <mxGraphModel dx="806" dy="504" grid="1" gridSize="10" guides="1" tooltips="1" connect="1" arrows="1" fold="1" page="1" pageScale="1" pageWidth="827" pageHeight="1169" math="0" shadow="0">
      <root>
        <mxCell id="0" />
        <mxCell id="1" parent="0" />
      </root>
    </mxGraphModel>
  </diagram>
</mxfile>
